# Blender v3.3.1 OBJ File: 'wall.blend'
# www.blender.org
o wall_wall_0
v -125.000031 176.787689 250.000107
v -125.000031 176.787689 250.000107
v -125.000031 176.787689 250.000107
v -125.000031 174.787689 250.000107
v -125.000031 174.787689 250.000107
v -125.000031 174.787689 250.000107
v 125.000061 176.787689 250.000046
v 125.000061 176.787689 250.000046
v 125.000061 176.787689 250.000046
v 125.000061 174.787689 250.000046
v 125.000061 174.787689 250.000046
v 125.000061 174.787689 250.000046
v -43.549530 176.787720 18.801186
v -43.549530 176.787720 18.801186
v -43.549530 176.787720 18.801186
v -43.549530 174.787720 18.801186
v -43.549530 174.787720 18.801186
v -43.549530 174.787720 18.801186
v -46.670872 176.787720 18.390251
v -46.670872 176.787720 18.390251
v -46.670872 176.787720 18.390251
v -46.670872 174.787720 18.390251
v -46.670872 174.787720 18.390251
v -46.670872 174.787720 18.390251
v -40.428188 176.787720 18.390251
v -40.428188 176.787720 18.390251
v -40.428188 176.787720 18.390251
v -40.428188 174.787720 18.390251
v -40.428188 174.787720 18.390251
v -40.428188 174.787720 18.390251
v -49.579498 176.787720 17.185463
v -49.579498 176.787720 17.185463
v -49.579498 176.787720 17.185463
v -49.579498 174.787720 17.185463
v -49.579498 174.787720 17.185463
v -49.579498 174.787720 17.185463
v -37.519558 176.787720 17.185455
v -37.519558 176.787720 17.185455
v -37.519558 176.787720 17.185455
v -37.519558 174.787720 17.185455
v -37.519558 174.787720 17.185455
v -37.519558 174.787720 17.185455
v -35.021862 176.787720 15.268921
v -35.021862 176.787720 15.268921
v -35.021862 176.787720 15.268921
v -35.021862 174.787720 15.268921
v -35.021862 174.787720 15.268921
v -35.021862 174.787720 15.268921
v -52.077194 176.787720 15.268913
v -52.077194 176.787720 15.268913
v -52.077194 176.787720 15.268913
v -52.077194 174.787720 15.268913
v -52.077194 174.787720 15.268913
v -52.077194 174.787720 15.268913
v -33.105316 176.787720 12.771217
v -33.105316 176.787720 12.771217
v -33.105316 176.787720 12.771217
v -33.105316 174.787720 12.771217
v -33.105316 174.787720 12.771217
v -33.105316 174.787720 12.771217
v -53.993744 176.787720 12.771217
v -53.993744 176.787720 12.771217
v -53.993744 176.787720 12.771217
v -53.993744 174.787720 12.771217
v -53.993744 174.787720 12.771217
v -53.993744 174.787720 12.771217
v -31.900520 176.787720 9.862595
v -31.900520 176.787720 9.862595
v -31.900520 176.787720 9.862595
v -31.900520 174.787720 9.862595
v -31.900520 174.787720 9.862595
v -31.900520 174.787720 9.862595
v -55.198540 176.787720 9.862595
v -55.198540 176.787720 9.862595
v -55.198540 176.787720 9.862595
v -55.198540 174.787720 9.862595
v -55.198540 174.787720 9.862595
v -55.198540 174.787720 9.862595
v -55.609467 176.787720 6.741249
v -55.609467 176.787720 6.741249
v -55.609467 176.787720 6.741249
v -55.609467 174.787720 6.741249
v -55.609467 174.787720 6.741249
v -55.609467 174.787720 6.741249
v -31.489588 176.787720 6.741241
v -31.489588 176.787720 6.741241
v -31.489588 176.787720 6.741241
v -31.489586 174.787720 6.741241
v -31.489586 174.787720 6.741241
v -31.489586 174.787720 6.741241
v -125.000061 176.787720 0.000015
v -125.000061 176.787720 0.000015
v -125.000061 176.787720 0.000015
v -125.000061 174.787720 0.000015
v -125.000061 174.787720 0.000015
v -125.000061 174.787720 0.000015
v -55.609467 176.787720 0.000000
v -55.609467 176.787720 0.000000
v -55.609467 176.787720 0.000000
v -55.609467 174.787720 0.000000
v -55.609467 174.787720 0.000000
v -55.609467 174.787720 0.000000
v -31.489588 176.787720 -0.000008
v -31.489588 176.787720 -0.000008
v -31.489588 176.787720 -0.000008
v -31.489588 174.787720 -0.000008
v -31.489588 174.787720 -0.000008
v -31.489588 174.787720 -0.000008
v 125.000031 176.787720 -0.000046
v 125.000031 176.787720 -0.000046
v 125.000031 176.787720 -0.000046
v 125.000031 174.787720 -0.000046
v 125.000031 174.787720 -0.000046
v 125.000031 174.787720 -0.000046
vt 0.000000 1.000000
vt 0.000000 0.000000
vt 0.000000 0.000000
vt 0.000000 1.000000
vt 1.000000 1.000000
vt 0.000000 1.000000
vt 0.000000 1.000000
vt 1.000000 1.000000
vt 0.000000 0.000000
vt 1.000000 0.000000
vt 1.000000 0.000000
vt 0.000000 0.000000
vt -0.000000 0.157346
vt -0.000000 0.198805
vt -0.000000 0.198805
vt -0.000000 0.157346
vt 0.500000 0.198805
vt 0.500000 0.157346
vt 0.500000 0.157346
vt 0.500000 0.198805
vt 1.000000 1.000000
vt 1.000000 1.000000
vt 1.000000 0.722438
vt 1.000000 0.722438
vt 1.000000 0.000000
vt 1.000000 0.000000
vt 1.000000 0.625958
vt 1.000000 0.625958
vt 1.000000 1.000000
vt 0.000000 0.000000
vt 0.000000 1.000000
vt 0.926439 0.686683
vt 0.924795 0.674198
vt 0.931258 0.698318
vt 0.938924 0.708309
vt 0.948915 0.715975
vt 0.960550 0.720794
vt 0.973035 0.722438
vt 1.000000 0.722438
vt 1.000000 0.000000
vt 0.926439 0.661713
vt 0.931258 0.650078
vt 0.938924 0.640087
vt 0.948915 0.632421
vt 0.960550 0.627602
vt 0.973035 0.625958
vt 1.000000 0.625958
vt 1.000000 0.000000
vt 0.000000 1.000000
vt 0.000000 0.000000
vt 0.924795 0.674198
vt 0.926439 0.661713
vt 0.931258 0.650078
vt 0.938924 0.640087
vt 0.948915 0.632421
vt 0.960550 0.627602
vt 0.973035 0.625958
vt 1.000000 0.625958
vt 0.926439 0.686683
vt 1.000000 1.000000
vt 0.931258 0.698318
vt 0.938924 0.708309
vt 0.948915 0.715975
vt 0.960550 0.720794
vt 0.973035 0.722438
vt 1.000000 0.722438
vt 0.500000 0.198805
vt 0.458333 0.198805
vt 0.458333 0.157346
vt 0.500000 0.157346
vt 0.458333 0.198805
vt 0.416666 0.198805
vt 0.416667 0.157346
vt 0.458333 0.157346
vt 0.416666 0.198805
vt 0.375000 0.198805
vt 0.375000 0.157346
vt 0.416666 0.157346
vt 0.375000 0.157346
vt 0.375000 0.198805
vt 0.333333 0.198805
vt 0.333333 0.157346
vt 0.333333 0.157346
vt 0.333333 0.198805
vt 0.291667 0.198805
vt 0.291667 0.157346
vt 0.291667 0.157346
vt 0.291667 0.198805
vt 0.250000 0.198805
vt 0.250000 0.157346
vt 0.250000 0.157346
vt 0.250000 0.198805
vt 0.208333 0.198805
vt 0.208333 0.157346
vt 0.208333 0.157346
vt 0.208333 0.198805
vt 0.166666 0.198805
vt 0.166666 0.157346
vt 0.166666 0.157346
vt 0.166666 0.198805
vt 0.125000 0.198805
vt 0.125000 0.157346
vt 0.125000 0.157346
vt 0.125000 0.198805
vt 0.083333 0.198805
vt 0.083333 0.157346
vt 0.083333 0.157346
vt 0.083333 0.198805
vt 0.041666 0.198805
vt 0.041666 0.157346
vt 0.041666 0.157346
vt 0.041666 0.198805
vt -0.000000 0.198805
vt -0.000000 0.157346
vn 0.0000 0.0000 1.0000
vn -1.0000 0.0000 0.0000
vn 1.0000 0.0000 -0.0000
vn -0.0000 0.0000 -1.0000
vn -0.0000 -1.0000 -0.0000
vn 0.0000 -1.0000 -0.0004
vn 0.0000 1.0000 0.0000
vn 0.9914 0.0000 -0.1305
vn 0.9239 0.0000 -0.3827
vn 0.7934 0.0000 -0.6088
vn 0.6088 0.0000 -0.7934
vn 0.3827 0.0000 -0.9239
vn 0.1305 0.0000 -0.9914
vn -0.1305 0.0000 -0.9914
vn -0.3827 0.0000 -0.9239
vn -0.6088 0.0000 -0.7934
vn -0.7934 0.0000 -0.6088
vn -0.9239 0.0000 -0.3827
vn -0.9914 0.0000 -0.1305
s off
f 4/1/1 10/2/1 7/3/1
f 4/1/1 7/3/1 1/4/1
f 94/5/2 5/6/2 2/7/2
f 94/5/2 2/7/2 91/8/2
f 12/9/3 113/10/3 110/11/3
f 12/9/3 110/11/3 9/12/3
f 88/13/2 85/14/2 103/15/2
f 88/13/2 103/15/2 106/16/2
f 80/17/3 83/18/3 101/19/3
f 80/17/3 101/19/3 98/20/3
f 96/21/4 93/22/4 99/23/4
f 96/21/4 99/23/4 102/24/4
f 111/25/4 114/26/4 108/27/4
f 111/25/4 108/27/4 105/28/4
f 95/29/5 11/30/5 6/31/5
f 11/30/5 95/29/5 22/32/5
f 11/30/5 22/32/5 16/33/5
f 22/32/5 95/29/5 34/34/5
f 34/34/5 95/29/5 52/35/5
f 52/35/5 95/29/5 64/36/5
f 64/36/5 95/29/5 76/37/5
f 76/37/5 95/29/5 82/38/5
f 82/38/5 95/29/5 100/39/5
f 16/33/5 112/40/5 11/30/5
f 112/40/6 16/33/6 28/41/6
f 112/40/5 28/41/5 40/42/5
f 112/40/5 40/42/5 46/43/5
f 112/40/5 46/43/5 58/44/5
f 112/40/5 58/44/5 70/45/5
f 112/40/5 70/45/5 89/46/5
f 112/40/5 89/46/5 107/47/5
f 109/48/7 3/49/7 8/50/7
f 3/49/7 109/48/7 13/51/7
f 13/51/7 109/48/7 25/52/7
f 25/52/7 109/48/7 37/53/7
f 37/53/7 109/48/7 43/54/7
f 43/54/7 109/48/7 55/55/7
f 55/55/7 109/48/7 67/56/7
f 67/56/7 109/48/7 86/57/7
f 86/57/7 109/48/7 104/58/7
f 3/49/7 19/59/7 92/60/7
f 19/59/7 3/49/7 13/51/7
f 92/60/7 19/59/7 31/61/7
f 92/60/7 31/61/7 49/62/7
f 92/60/7 49/62/7 61/63/7
f 92/60/7 61/63/7 73/64/7
f 92/60/7 73/64/7 79/65/7
f 92/60/7 79/65/7 97/66/7
s 1
f 81/67/8 74/68/8 77/69/8
f 81/67/8 77/69/8 84/70/8
f 75/71/9 62/72/9 65/73/9
f 75/71/9 65/73/9 78/74/9
f 63/75/10 50/76/10 53/77/10
f 63/75/10 53/77/10 66/78/10
f 54/79/11 51/80/11 32/81/11
f 54/79/11 32/81/11 35/82/11
f 36/83/12 33/84/12 20/85/12
f 36/83/12 20/85/12 23/86/12
f 24/87/13 21/88/13 15/89/13
f 24/87/13 15/89/13 18/90/13
f 17/91/14 14/92/14 27/93/14
f 17/91/14 27/93/14 30/94/14
f 29/95/15 26/96/15 39/97/15
f 29/95/15 39/97/15 42/98/15
f 41/99/16 38/100/16 45/101/16
f 41/99/16 45/101/16 48/102/16
f 47/103/17 44/104/17 57/105/17
f 47/103/17 57/105/17 60/106/17
f 59/107/18 56/108/18 69/109/18
f 59/107/18 69/109/18 72/110/18
f 71/111/19 68/112/19 87/113/19
f 71/111/19 87/113/19 90/114/19
